<svg width="977" height="256" viewBox="0 0 977 256" fill="none" xmlns="http://www.w3.org/2000/svg">
<path d="M323.284 183V64.74H349.204V183H323.284ZM345.964 183V160.968H397.642V183H345.964ZM345.964 133.914V111.882H393.916V133.914H345.964ZM345.964 86.772V64.74H396.508V86.772H345.964ZM435.856 183L409.288 94.224H436.018L460.966 183H435.856ZM443.956 183V161.454H470.038V183H443.956ZM453.514 183L475.06 94.224H500.008L477.004 183H453.514ZM558.164 186.078C550.388 186.078 543.476 184.89 537.428 182.514C531.38 180.03 526.25 176.682 522.038 172.47C517.934 168.258 514.802 163.452 512.642 158.052C510.482 152.544 509.402 146.766 509.402 140.718V136.992C509.402 130.836 510.482 125.004 512.642 119.496C514.91 113.88 518.15 108.966 522.362 104.754C526.682 100.542 531.866 97.248 537.914 94.872C543.962 92.388 550.712 91.146 558.164 91.146C565.832 91.146 572.636 92.388 578.576 94.872C584.624 97.248 589.754 100.542 593.966 104.754C598.178 108.966 601.418 113.88 603.686 119.496C605.954 125.004 607.088 130.836 607.088 136.992V140.718C607.088 146.766 606.008 152.544 603.848 158.052C601.688 163.452 598.502 168.258 594.29 172.47C590.186 176.682 585.11 180.03 579.062 182.514C573.014 184.89 566.048 186.078 558.164 186.078ZM558.164 164.208C563.24 164.208 567.452 163.128 570.8 160.968C574.148 158.808 576.686 155.784 578.414 151.896C580.25 148.008 581.168 143.688 581.168 138.936C581.168 133.86 580.25 129.432 578.414 125.652C576.578 121.764 573.932 118.686 570.476 116.418C567.128 114.15 563.024 113.016 558.164 113.016C553.412 113.016 549.308 114.15 545.852 116.418C542.396 118.686 539.75 121.764 537.914 125.652C536.186 129.432 535.322 133.86 535.322 138.936C535.322 143.688 536.186 148.008 537.914 151.896C539.642 155.784 542.234 158.808 545.69 160.968C549.146 163.128 553.304 164.208 558.164 164.208ZM627.931 183V64.74H654.013V183H627.931ZM617.401 83.856V64.74H654.013V83.856H617.401ZM709.487 185.754C699.227 185.754 691.343 182.46 685.835 175.872C680.327 169.176 677.573 159.132 677.573 145.74V94.224H703.493V147.036C703.493 151.788 704.843 155.568 707.543 158.376C710.243 161.184 713.861 162.588 718.397 162.588C723.041 162.588 726.821 161.13 729.737 158.214C732.653 155.298 734.111 151.356 734.111 146.388V94.224H760.031V183H739.457V145.578H741.239C741.239 154.542 740.051 162.048 737.675 168.096C735.407 174.036 732.005 178.464 727.469 181.38C722.933 184.296 717.317 185.754 710.621 185.754H709.487Z" fill="black"/>
<path d="M848.083 183L820.057 141.528H807.583L843.709 94.224H870.925L836.905 138.288L837.229 125.652L877.243 183H848.083ZM785.551 183V64.74H811.471V183H785.551ZM927.976 186.078C920.416 186.078 913.72 184.782 907.888 182.19C902.164 179.598 897.358 176.142 893.47 171.822C889.69 167.394 886.774 162.48 884.722 157.08C882.778 151.572 881.806 145.956 881.806 140.232V136.992C881.806 131.052 882.778 125.382 884.722 119.982C886.774 114.474 889.69 109.56 893.47 105.24C897.25 100.92 901.948 97.518 907.564 95.034C913.288 92.442 919.768 91.146 927.004 91.146C936.508 91.146 944.5 93.306 950.98 97.626C957.568 101.838 962.59 107.4 966.046 114.312C969.502 121.116 971.23 128.568 971.23 136.668V145.416H892.66V130.674H955.516L947.092 137.478C947.092 132.186 946.336 127.65 944.824 123.87C943.312 120.09 941.044 117.228 938.02 115.284C935.104 113.232 931.432 112.206 927.004 112.206C922.468 112.206 918.634 113.232 915.502 115.284C912.37 117.336 909.994 120.36 908.374 124.356C906.754 128.244 905.944 133.05 905.944 138.774C905.944 144.066 906.7 148.71 908.212 152.706C909.724 156.594 912.1 159.618 915.34 161.778C918.58 163.938 922.792 165.018 927.976 165.018C932.728 165.018 936.616 164.1 939.64 162.264C942.664 160.428 944.716 158.16 945.796 155.46H969.61C968.314 161.4 965.776 166.692 961.996 171.336C958.216 175.98 953.464 179.598 947.74 182.19C942.016 184.782 935.428 186.078 927.976 186.078Z" fill="#7C5CFC"/>
<g clip-path="url(#clip0_153_29)">
<g filter="url(#filter0_i_153_29)">
<path d="M5.17009 188.717L111.669 249.675C116.6 252.505 122.246 254 128 254C133.754 254 139.4 252.505 144.331 249.675L250.83 188.717C252.407 187.813 253.712 186.534 254.618 185.006C255.524 183.478 256 181.753 256 179.997C256 178.242 255.524 176.516 254.618 174.989C253.712 173.461 252.407 172.182 250.83 171.278L144.331 110.319C139.399 107.493 133.754 106 128 106C122.246 106 116.601 107.493 111.669 110.319L5.17009 171.278C3.59296 172.182 2.288 173.461 1.38206 174.989C0.476111 176.516 0 178.242 0 179.997C0 181.753 0.476111 183.478 1.38206 185.006C2.288 186.534 3.59296 187.813 5.17009 188.717Z" fill="url(#paint0_linear_153_29)"/>
<path d="M5.17009 188.717L111.669 249.675C116.6 252.505 122.246 254 128 254C133.754 254 139.4 252.505 144.331 249.675L250.83 188.717C252.407 187.813 253.712 186.534 254.618 185.006C255.524 183.478 256 181.753 256 179.997C256 178.242 255.524 176.516 254.618 174.989C253.712 173.461 252.407 172.182 250.83 171.278L144.331 110.319C139.399 107.493 133.754 106 128 106C122.246 106 116.601 107.493 111.669 110.319L5.17009 171.278C3.59296 172.182 2.288 173.461 1.38206 174.989C0.476111 176.516 0 178.242 0 179.997C0 181.753 0.476111 183.478 1.38206 185.006C2.288 186.534 3.59296 187.813 5.17009 188.717Z" fill="url(#paint1_radial_153_29)" fill-opacity="0.75"/>
</g>
<g filter="url(#filter1_di_153_29)">
<path d="M5.17009 135.717L111.669 196.675C116.6 199.505 122.246 201 128 201C133.754 201 139.4 199.505 144.331 196.675L250.83 135.717C252.407 134.813 253.712 133.534 254.618 132.006C255.524 130.478 256 128.753 256 126.997C256 125.242 255.524 123.516 254.618 121.989C253.712 120.461 252.407 119.182 250.83 118.278L144.331 57.3194C139.399 54.4931 133.754 53 128 53C122.246 53 116.601 54.4931 111.669 57.3194L5.17009 118.278C3.59296 119.182 2.288 120.461 1.38206 121.989C0.476111 123.516 0 125.242 0 126.997C0 128.753 0.476111 130.478 1.38206 132.006C2.288 133.534 3.59296 134.813 5.17009 135.717Z" fill="url(#paint2_linear_153_29)"/>
<path d="M5.17009 135.717L111.669 196.675C116.6 199.505 122.246 201 128 201C133.754 201 139.4 199.505 144.331 196.675L250.83 135.717C252.407 134.813 253.712 133.534 254.618 132.006C255.524 130.478 256 128.753 256 126.997C256 125.242 255.524 123.516 254.618 121.989C253.712 120.461 252.407 119.182 250.83 118.278L144.331 57.3194C139.399 54.4931 133.754 53 128 53C122.246 53 116.601 54.4931 111.669 57.3194L5.17009 118.278C3.59296 119.182 2.288 120.461 1.38206 121.989C0.476111 123.516 0 125.242 0 126.997C0 128.753 0.476111 130.478 1.38206 132.006C2.288 133.534 3.59296 134.813 5.17009 135.717Z" fill="url(#paint3_radial_153_29)" fill-opacity="0.75"/>
</g>
<g filter="url(#filter2_di_153_29)">
<path d="M5.17009 82.7174L111.669 143.675C116.6 146.505 122.246 148 128 148C133.754 148 139.4 146.505 144.331 143.675L250.83 82.7174C252.407 81.8128 253.712 80.5344 254.618 79.0064C255.524 77.4784 256 75.7529 256 73.9975C256 72.242 255.524 70.5165 254.618 68.9885C253.712 67.4605 252.407 66.1821 250.83 65.2775L144.331 4.31943C139.399 1.49313 133.754 0 128 0C122.246 0 116.601 1.49313 111.669 4.31943L5.17009 65.2775C3.59296 66.1821 2.288 67.4605 1.38206 68.9885C0.476111 70.5165 0 72.242 0 73.9975C0 75.7529 0.476111 77.4784 1.38206 79.0064C2.288 80.5344 3.59296 81.8128 5.17009 82.7174Z" fill="url(#paint4_linear_153_29)"/>
</g>
</g>
<defs>
<filter id="filter0_i_153_29" x="0" y="106" width="256" height="150" filterUnits="userSpaceOnUse" color-interpolation-filters="sRGB">
<feFlood flood-opacity="0" result="BackgroundImageFix"/>
<feBlend mode="normal" in="SourceGraphic" in2="BackgroundImageFix" result="shape"/>
<feColorMatrix in="SourceAlpha" type="matrix" values="0 0 0 0 0 0 0 0 0 0 0 0 0 0 0 0 0 0 127 0" result="hardAlpha"/>
<feOffset dy="2"/>
<feGaussianBlur stdDeviation="5"/>
<feComposite in2="hardAlpha" operator="arithmetic" k2="-1" k3="1"/>
<feColorMatrix type="matrix" values="0 0 0 0 1 0 0 0 0 1 0 0 0 0 1 0 0 0 0.1 0"/>
<feBlend mode="normal" in2="shape" result="effect1_innerShadow_153_29"/>
</filter>
<filter id="filter1_di_153_29" x="-6" y="51" width="268" height="160" filterUnits="userSpaceOnUse" color-interpolation-filters="sRGB">
<feFlood flood-opacity="0" result="BackgroundImageFix"/>
<feColorMatrix in="SourceAlpha" type="matrix" values="0 0 0 0 0 0 0 0 0 0 0 0 0 0 0 0 0 0 127 0" result="hardAlpha"/>
<feOffset dy="4"/>
<feGaussianBlur stdDeviation="3"/>
<feComposite in2="hardAlpha" operator="out"/>
<feColorMatrix type="matrix" values="0 0 0 0 0 0 0 0 0 0 0 0 0 0 0 0 0 0 0.2 0"/>
<feBlend mode="normal" in2="BackgroundImageFix" result="effect1_dropShadow_153_29"/>
<feBlend mode="normal" in="SourceGraphic" in2="effect1_dropShadow_153_29" result="shape"/>
<feColorMatrix in="SourceAlpha" type="matrix" values="0 0 0 0 0 0 0 0 0 0 0 0 0 0 0 0 0 0 127 0" result="hardAlpha"/>
<feOffset dy="2"/>
<feGaussianBlur stdDeviation="5"/>
<feComposite in2="hardAlpha" operator="arithmetic" k2="-1" k3="1"/>
<feColorMatrix type="matrix" values="0 0 0 0 1 0 0 0 0 1 0 0 0 0 1 0 0 0 0.1 0"/>
<feBlend mode="normal" in2="shape" result="effect2_innerShadow_153_29"/>
</filter>
<filter id="filter2_di_153_29" x="-6" y="-2" width="268" height="160" filterUnits="userSpaceOnUse" color-interpolation-filters="sRGB">
<feFlood flood-opacity="0" result="BackgroundImageFix"/>
<feColorMatrix in="SourceAlpha" type="matrix" values="0 0 0 0 0 0 0 0 0 0 0 0 0 0 0 0 0 0 127 0" result="hardAlpha"/>
<feOffset dy="4"/>
<feGaussianBlur stdDeviation="3"/>
<feComposite in2="hardAlpha" operator="out"/>
<feColorMatrix type="matrix" values="0 0 0 0 0 0 0 0 0 0 0 0 0 0 0 0 0 0 0.2 0"/>
<feBlend mode="normal" in2="BackgroundImageFix" result="effect1_dropShadow_153_29"/>
<feBlend mode="normal" in="SourceGraphic" in2="effect1_dropShadow_153_29" result="shape"/>
<feColorMatrix in="SourceAlpha" type="matrix" values="0 0 0 0 0 0 0 0 0 0 0 0 0 0 0 0 0 0 127 0" result="hardAlpha"/>
<feOffset dy="2"/>
<feGaussianBlur stdDeviation="5"/>
<feComposite in2="hardAlpha" operator="arithmetic" k2="-1" k3="1"/>
<feColorMatrix type="matrix" values="0 0 0 0 1 0 0 0 0 1 0 0 0 0 1 0 0 0 0.1 0"/>
<feBlend mode="normal" in2="shape" result="effect2_innerShadow_153_29"/>
</filter>
<linearGradient id="paint0_linear_153_29" x1="0" y1="180" x2="256" y2="180" gradientUnits="userSpaceOnUse">
<stop offset="0.8" stop-color="#634AC9"/>
<stop offset="1" stop-color="#43309B"/>
</linearGradient>
<radialGradient id="paint1_radial_153_29" cx="0" cy="0" r="1" gradientUnits="userSpaceOnUse" gradientTransform="translate(128 180) rotate(-86.855) scale(91.1373 129.617)">
<stop/>
<stop offset="0.62" stop-opacity="0"/>
</radialGradient>
<linearGradient id="paint2_linear_153_29" x1="0" y1="127" x2="256" y2="127" gradientUnits="userSpaceOnUse">
<stop offset="0.5" stop-color="#634AC9"/>
<stop offset="1" stop-color="#5F6FFF"/>
</linearGradient>
<radialGradient id="paint3_radial_153_29" cx="0" cy="0" r="1" gradientUnits="userSpaceOnUse" gradientTransform="translate(128 127) rotate(-103.305) scale(76.0411 159.567)">
<stop/>
<stop offset="0.615385" stop-opacity="0"/>
</radialGradient>
<linearGradient id="paint4_linear_153_29" x1="0" y1="74" x2="256" y2="74" gradientUnits="userSpaceOnUse">
<stop stop-color="#7C5CFC"/>
<stop offset="0.45" stop-color="#5F6FFF"/>
<stop offset="0.75" stop-color="#3B9DF7"/>
<stop offset="1" stop-color="#22D3EE"/>
</linearGradient>
<clipPath id="clip0_153_29">
<rect width="256" height="256" fill="white"/>
</clipPath>
</defs>
</svg>
