<svg width="229" height="76" viewBox="6 12 229 76" fill="none" xmlns="http://www.w3.org/2000/svg">
<path d="M98.788 62V37.18H104.228V62H98.788ZM103.548 62V57.376H114.394V62H103.548ZM103.548 51.698V47.074H113.612V51.698H103.548ZM103.548 41.804V37.18H114.156V41.804H103.548ZM122.074 62L116.498 43.368H122.108L127.344 62H122.074ZM123.774 62V57.478H129.248V62H123.774ZM125.78 62L130.302 43.368H135.538L130.71 62H125.78ZM147.404 62.646C145.772 62.646 144.321 62.3967 143.052 61.898C141.782 61.3767 140.706 60.674 139.822 59.79C138.96 58.906 138.303 57.8973 137.85 56.764C137.396 55.608 137.17 54.3953 137.17 53.126V52.344C137.17 51.052 137.396 49.828 137.85 48.672C138.326 47.4933 139.006 46.462 139.89 45.578C140.796 44.694 141.884 44.0027 143.154 43.504C144.423 42.9827 145.84 42.722 147.404 42.722C149.013 42.722 150.441 42.9827 151.688 43.504C152.957 44.0027 154.034 44.694 154.918 45.578C155.802 46.462 156.482 47.4933 156.958 48.672C157.434 49.828 157.672 51.052 157.672 52.344V53.126C157.672 54.3953 157.445 55.608 156.992 56.764C156.538 57.8973 155.87 58.906 154.986 59.79C154.124 60.674 153.059 61.3767 151.79 61.898C150.52 62.3967 149.058 62.646 147.404 62.646ZM147.404 58.056C148.469 58.056 149.353 57.8293 150.056 57.376C150.758 56.9227 151.291 56.288 151.654 55.472C152.039 54.656 152.232 53.7493 152.232 52.752C152.232 51.6867 152.039 50.7573 151.654 49.964C151.268 49.148 150.713 48.502 149.988 48.026C149.285 47.55 148.424 47.312 147.404 47.312C146.406 47.312 145.545 47.55 144.82 48.026C144.094 48.502 143.539 49.148 143.154 49.964C142.791 50.7573 142.61 51.6867 142.61 52.752C142.61 53.7493 142.791 54.656 143.154 55.472C143.516 56.288 144.06 56.9227 144.786 57.376C145.511 57.8293 146.384 58.056 147.404 58.056ZM161.706 62V37.18H167.18V62H161.706ZM159.496 41.192V37.18H167.18V41.192H159.496ZM178.483 62.578C176.33 62.578 174.675 61.8867 173.519 60.504C172.363 59.0987 171.785 56.9907 171.785 54.18V43.368H177.225V54.452C177.225 55.4493 177.508 56.2427 178.075 56.832C178.642 57.4213 179.401 57.716 180.353 57.716C181.328 57.716 182.121 57.41 182.733 56.798C183.345 56.186 183.651 55.3587 183.651 54.316V43.368H189.091V62H184.773V54.146H185.147C185.147 56.0273 184.898 57.6027 184.399 58.872C183.923 60.1187 183.209 61.048 182.257 61.66C181.305 62.272 180.126 62.578 178.721 62.578H178.483Z" fill="black"/>
<path d="M207.231 62L201.349 53.296H198.731L206.313 43.368H212.025L204.885 52.616L204.953 49.964L213.351 62H207.231ZM194.107 62V37.18H199.547V62H194.107ZM223.659 62.646C222.072 62.646 220.667 62.374 219.443 61.83C218.241 61.286 217.233 60.5607 216.417 59.654C215.623 58.7247 215.011 57.6933 214.581 56.56C214.173 55.404 213.969 54.2253 213.969 53.024V52.344C213.969 51.0973 214.173 49.9073 214.581 48.774C215.011 47.618 215.623 46.5867 216.417 45.68C217.21 44.7733 218.196 44.0593 219.375 43.538C220.576 42.994 221.936 42.722 223.455 42.722C225.449 42.722 227.127 43.1753 228.487 44.082C229.869 44.966 230.923 46.1333 231.649 47.584C232.374 49.012 232.737 50.576 232.737 52.276V54.112H216.247V51.018H229.439L227.671 52.446C227.671 51.3353 227.512 50.3833 227.195 49.59C226.877 48.7967 226.401 48.196 225.767 47.788C225.155 47.3573 224.384 47.142 223.455 47.142C222.503 47.142 221.698 47.3573 221.041 47.788C220.383 48.2187 219.885 48.8533 219.545 49.692C219.205 50.508 219.035 51.5167 219.035 52.718C219.035 53.8287 219.193 54.8033 219.511 55.642C219.828 56.458 220.327 57.0927 221.007 57.546C221.687 57.9993 222.571 58.226 223.659 58.226C224.656 58.226 225.472 58.0333 226.107 57.648C226.741 57.2627 227.172 56.7867 227.399 56.22H232.397C232.125 57.4667 231.592 58.5773 230.799 59.552C230.005 60.5267 229.008 61.286 227.807 61.83C226.605 62.374 225.223 62.646 223.659 62.646Z" fill="#7C5CFC"/>
<g clip-path="url(#clip0_149_60)">
<g filter="url(#filter0_i_149_60)">
<path d="M9.45409 67.0768L39.4069 84.2212C40.7937 85.017 42.3816 85.4375 44 85.4375C45.6184 85.4375 47.2063 85.017 48.5931 84.2212L78.5459 67.0768C78.9895 66.8223 79.3565 66.4628 79.6113 66.0331C79.8661 65.6033 80 65.118 80 64.6243C80 64.1306 79.8661 63.6453 79.6113 63.2155C79.3565 62.7858 78.9895 62.4262 78.5459 62.1718L48.5931 45.0273C47.206 44.2324 45.6182 43.8125 44 43.8125C42.3818 43.8125 40.794 44.2324 39.4069 45.0273L9.45409 62.1718C9.01052 62.4262 8.6435 62.7858 8.3887 63.2155C8.13391 63.6453 8 64.1306 8 64.6243C8 65.118 8.13391 65.6033 8.3887 66.0331C8.6435 66.4628 9.01052 66.8223 9.45409 67.0768Z" fill="url(#paint0_linear_149_60)"/>
<path d="M9.45409 67.0768L39.4069 84.2212C40.7937 85.017 42.3816 85.4375 44 85.4375C45.6184 85.4375 47.2063 85.017 48.5931 84.2212L78.5459 67.0768C78.9895 66.8223 79.3565 66.4628 79.6113 66.0331C79.8661 65.6033 80 65.118 80 64.6243C80 64.1306 79.8661 63.6453 79.6113 63.2155C79.3565 62.7858 78.9895 62.4262 78.5459 62.1718L48.5931 45.0273C47.206 44.2324 45.6182 43.8125 44 43.8125C42.3818 43.8125 40.794 44.2324 39.4069 45.0273L9.45409 62.1718C9.01052 62.4262 8.6435 62.7858 8.3887 63.2155C8.13391 63.6453 8 64.1306 8 64.6243C8 65.118 8.13391 65.6033 8.3887 66.0331C8.6435 66.4628 9.01052 66.8223 9.45409 67.0768Z" fill="url(#paint1_radial_149_60)" fill-opacity="0.75"/>
</g>
<g filter="url(#filter1_i_149_60)">
<path d="M9.45409 52.1705L39.4069 69.315C40.7937 70.1108 42.3816 70.5313 44 70.5313C45.6184 70.5313 47.2063 70.1108 48.5931 69.315L78.5459 52.1705C78.9895 51.9161 79.3565 51.5565 79.6113 51.1268C79.8661 50.6971 80 50.2117 80 49.718C80 49.2243 79.8661 48.739 79.6113 48.3093C79.3565 47.8795 78.9895 47.52 78.5459 47.2656L48.5931 30.1211C47.206 29.3262 45.6182 28.9062 44 28.9062C42.3818 28.9062 40.794 29.3262 39.4069 30.1211L9.45409 47.2656C9.01052 47.52 8.6435 47.8795 8.3887 48.3093C8.13391 48.739 8 49.2243 8 49.718C8 50.2117 8.13391 50.6971 8.3887 51.1268C8.6435 51.5565 9.01052 51.9161 9.45409 52.1705Z" fill="url(#paint2_linear_149_60)"/>
<path d="M9.45409 52.1705L39.4069 69.315C40.7937 70.1108 42.3816 70.5313 44 70.5313C45.6184 70.5313 47.2063 70.1108 48.5931 69.315L78.5459 52.1705C78.9895 51.9161 79.3565 51.5565 79.6113 51.1268C79.8661 50.6971 80 50.2117 80 49.718C80 49.2243 79.8661 48.739 79.6113 48.3093C79.3565 47.8795 78.9895 47.52 78.5459 47.2656L48.5931 30.1211C47.206 29.3262 45.6182 28.9062 44 28.9062C42.3818 28.9062 40.794 29.3262 39.4069 30.1211L9.45409 47.2656C9.01052 47.52 8.6435 47.8795 8.3887 48.3093C8.13391 48.739 8 49.2243 8 49.718C8 50.2117 8.13391 50.6971 8.3887 51.1268C8.6435 51.5565 9.01052 51.9161 9.45409 52.1705Z" fill="url(#paint3_radial_149_60)" fill-opacity="0.75"/>
</g>
<g filter="url(#filter2_i_149_60)">
<path d="M9.45409 37.2643L39.4069 54.4087C40.7937 55.2045 42.3816 55.625 44 55.625C45.6184 55.625 47.2063 55.2045 48.5931 54.4087L78.5459 37.2643C78.9895 37.0098 79.3565 36.6503 79.6113 36.2206C79.8661 35.7908 80 35.3055 80 34.8118C80 34.3181 79.8661 33.8328 79.6113 33.403C79.3565 32.9733 78.9895 32.6137 78.5459 32.3593L48.5931 15.2148C47.206 14.4199 45.6182 14 44 14C42.3818 14 40.794 14.4199 39.4069 15.2148L9.45409 32.3593C9.01052 32.6137 8.6435 32.9733 8.3887 33.403C8.13391 33.8328 8 34.3181 8 34.8118C8 35.3055 8.13391 35.7908 8.3887 36.2206C8.6435 36.6503 9.01052 37.0098 9.45409 37.2643Z" fill="url(#paint4_linear_149_60)"/>
</g>
</g>
<defs>
<filter id="filter0_i_149_60" x="8" y="43.8125" width="72" height="43.625" filterUnits="userSpaceOnUse" color-interpolation-filters="sRGB">
<feFlood flood-opacity="0" result="BackgroundImageFix"/>
<feBlend mode="normal" in="SourceGraphic" in2="BackgroundImageFix" result="shape"/>
<feColorMatrix in="SourceAlpha" type="matrix" values="0 0 0 0 0 0 0 0 0 0 0 0 0 0 0 0 0 0 127 0" result="hardAlpha"/>
<feOffset dy="2"/>
<feGaussianBlur stdDeviation="5"/>
<feComposite in2="hardAlpha" operator="arithmetic" k2="-1" k3="1"/>
<feColorMatrix type="matrix" values="0 0 0 0 1 0 0 0 0 1 0 0 0 0 1 0 0 0 0.1 0"/>
<feBlend mode="normal" in2="shape" result="effect1_innerShadow_149_60"/>
</filter>
<filter id="filter1_i_149_60" x="8" y="28.9062" width="72" height="43.625" filterUnits="userSpaceOnUse" color-interpolation-filters="sRGB">
<feFlood flood-opacity="0" result="BackgroundImageFix"/>
<feBlend mode="normal" in="SourceGraphic" in2="BackgroundImageFix" result="shape"/>
<feColorMatrix in="SourceAlpha" type="matrix" values="0 0 0 0 0 0 0 0 0 0 0 0 0 0 0 0 0 0 127 0" result="hardAlpha"/>
<feOffset dy="2"/>
<feGaussianBlur stdDeviation="5"/>
<feComposite in2="hardAlpha" operator="arithmetic" k2="-1" k3="1"/>
<feColorMatrix type="matrix" values="0 0 0 0 1 0 0 0 0 1 0 0 0 0 1 0 0 0 0.1 0"/>
<feBlend mode="normal" in2="shape" result="effect1_innerShadow_149_60"/>
</filter>
<filter id="filter2_i_149_60" x="8" y="14" width="72" height="43.625" filterUnits="userSpaceOnUse" color-interpolation-filters="sRGB">
<feFlood flood-opacity="0" result="BackgroundImageFix"/>
<feBlend mode="normal" in="SourceGraphic" in2="BackgroundImageFix" result="shape"/>
<feColorMatrix in="SourceAlpha" type="matrix" values="0 0 0 0 0 0 0 0 0 0 0 0 0 0 0 0 0 0 127 0" result="hardAlpha"/>
<feOffset dy="2"/>
<feGaussianBlur stdDeviation="5"/>
<feComposite in2="hardAlpha" operator="arithmetic" k2="-1" k3="1"/>
<feColorMatrix type="matrix" values="0 0 0 0 1 0 0 0 0 1 0 0 0 0 1 0 0 0 0.1 0"/>
<feBlend mode="normal" in2="shape" result="effect1_innerShadow_149_60"/>
</filter>
<linearGradient id="paint0_linear_149_60" x1="8" y1="64.625" x2="80" y2="64.625" gradientUnits="userSpaceOnUse">
<stop offset="0.8" stop-color="#634AC9"/>
<stop offset="1" stop-color="#43309B"/>
</linearGradient>
<radialGradient id="paint1_radial_149_60" cx="0" cy="0" r="1" gradientUnits="userSpaceOnUse" gradientTransform="translate(44 64.625) rotate(-86.855) scale(25.6324 36.4549)">
<stop/>
<stop offset="0.62" stop-opacity="0"/>
</radialGradient>
<linearGradient id="paint2_linear_149_60" x1="8" y1="49.7188" x2="80" y2="49.7187" gradientUnits="userSpaceOnUse">
<stop offset="0.5" stop-color="#634AC9"/>
<stop offset="1" stop-color="#5F6FFF"/>
</linearGradient>
<radialGradient id="paint3_radial_149_60" cx="0" cy="0" r="1" gradientUnits="userSpaceOnUse" gradientTransform="translate(44 49.7187) rotate(-103.305) scale(21.3866 44.8782)">
<stop/>
<stop offset="0.615385" stop-opacity="0"/>
</radialGradient>
<linearGradient id="paint4_linear_149_60" x1="8" y1="34.8125" x2="80" y2="34.8125" gradientUnits="userSpaceOnUse">
<stop stop-color="#7C5CFC"/>
<stop offset="0.45" stop-color="#5F6FFF"/>
<stop offset="0.75" stop-color="#3B9DF7"/>
<stop offset="1" stop-color="#22D3EE"/>
</linearGradient>
<clipPath id="clip0_149_60">
<rect width="72" height="72" fill="white" transform="translate(8 14)"/>
</clipPath>
</defs>
</svg>
