<svg width="672" height="220" viewBox="0 0 672 220" xmlns="http://www.w3.org/2000/svg">
  <defs>
    <linearGradient id="evolukeBadge2" x1="0" y1="0" x2="1" y2="1">
      <stop offset="0%" stop-color="#5B3FD9"/>
      <stop offset="46%" stop-color="#7C5CFC"/>
      <stop offset="100%" stop-color="#22D3EE"/>
    </linearGradient>
  </defs>

  <!-- badge icon -->
  <g transform="translate(20 30)">
    <rect x="0" y="0" width="160" height="160" rx="38" fill="url(#evolukeBadge2)"/>
    <g transform="translate(80 80) scale(4.6) translate(-12 -12)">
      <path d="M12 3 L20 7.2 L12 11.4 L4 7.2 Z" fill="#fff"/>
      <path d="M4 12 L12 16.2 L20 12" stroke="#fff" stroke-width="1.7" stroke-linejoin="round" fill="none" opacity="0.78"/>
      <path d="M4 16.4 L12 20.6 L20 16.4" stroke="#fff" stroke-width="1.7" stroke-linejoin="round" fill="none" opacity="0.52"/>
    </g>
  </g>

  <!-- wordmark: contornos vetoriais (Plus Jakarta Sans 800), texto escuro sólido (fundo claro) -->
  <path fill="#0A0E1A" d="M274.04 159L213.92 159L213.92 69.60L274.04 69.60L274.04 85.80L232.52 85.80L232.52 106.08L271.64 106.08L271.64 122.28L232.52 122.28L232.52 142.80L274.04 142.80L274.04 159M316.40 159L300.80 159L275 93.48L294.44 93.48L308.60 132.72L322.76 93.48L342.20 93.48L316.40 159M379.64 160.44Q369.92 160.44 361.94 156Q353.96 151.56 349.22 143.82Q344.48 136.08 344.48 126.24Q344.48 116.28 349.22 108.60Q353.96 100.92 361.94 96.48Q369.92 92.04 379.64 92.04Q389.36 92.04 397.28 96.48Q405.20 100.92 409.94 108.60Q414.68 116.28 414.68 126.24Q414.68 136.08 409.94 143.82Q405.20 151.56 397.28 156Q389.36 160.44 379.64 160.44M379.64 144.24Q386.96 144.24 391.52 139.20Q396.08 134.16 396.08 126.24Q396.08 118.44 391.52 113.34Q386.96 108.24 379.64 108.24Q372.32 108.24 367.70 113.34Q363.08 118.44 363.08 126.24Q363.08 134.16 367.70 139.20Q372.32 144.24 379.64 144.24M440.24 159L422.24 159L422.24 68.16L440.24 68.16L440.24 159M473.96 160.44Q461.96 160.44 455.54 152.94Q449.12 145.44 449.12 133.20L449.12 93.48L467.12 93.48L467.12 131.76Q467.12 137.40 470.48 140.82Q473.84 144.24 479.12 144.24Q484.40 144.24 487.76 140.82Q491.12 137.40 491.12 131.76L491.12 93.48L509.12 93.48L509.12 159L492.32 159L492.32 150.96Q489.80 155.76 485 158.10Q480.20 160.44 473.96 160.44M537.32 159L519.32 159L519.32 68.16L537.32 68.16L537.32 117.12L559.52 93.48L581.72 93.48L557.96 119.88L581.60 159L561.20 159L544.52 131.04L537.32 138.96L537.32 159M618.20 160.44Q607.76 160.44 600.08 155.82Q592.40 151.20 588.20 143.40Q584 135.60 584 126.12Q584 116.28 588.38 108.60Q592.76 100.92 600.20 96.48Q607.64 92.04 617 92.04Q627.44 92.04 634.64 96.36Q641.84 100.68 645.62 107.94Q649.40 115.20 649.40 124.32Q649.40 126.24 649.22 128.10Q649.04 129.96 648.56 131.28L602.72 131.28Q603.44 137.40 607.64 141.12Q611.84 144.84 618.44 144.84Q623.24 144.84 626.66 142.92Q630.08 141 632 137.64L646.40 144.48Q643.40 151.68 635.84 156.06Q628.28 160.44 618.20 160.44M617 106.44Q611.72 106.44 608.06 109.44Q604.40 112.44 603.08 118.08L630.32 118.08Q629.72 112.92 626.12 109.68Q622.52 106.44 617 106.44Z"/>
</svg>
